<svg height="229.11539" viewBox="0 0 220.02325 229.11539" width="220.02325" xmlns="http://www.w3.org/2000/svg"><path d="m45.653478 203.7334c-8.1984-6.89638-11.77845-13.66803-11.71703-22.16271.078-10.7889 4.3945-18.27434 13.42401-23.27922 4.19801-2.32688 6.19237-2.78208 12.0321-2.74625 5.81557.0357 7.91758.5431 12.42289 2.99886 5.25486 2.86433 10.22386 8.31298 12.27138 13.45592.54742 1.375 1.4234 5.51835 1.94662 9.20745.84301 5.94383.70476 7.28057-1.21434 11.74164-4.28256 9.95508-14.15631 16.05091-25.99854 16.05091-6.87482 0-6.93459-.0239-13.16709-5.2666zm61.214752.73728c-1.6681-2.00994.83477-4.70724 10.68929-11.51967 9.43816-6.52459 12.74193-7.5451 30.59378-9.45014 31.6388-3.3763 50.5452-8.10437 56.99126-14.25226 2.99687-2.85824 3.74758-8.51609 1.65-12.43546-1.96736-3.67604-1.20508-8.43993 2.39568-14.97185 5.38372-9.76629 5.4097-10.15906 1.13042-17.09203-2.06769-3.34992-3.75943-7.32525-3.75943-8.83406 0-1.50882 1.93234-5.94144 4.29409-9.85027 5.79273-9.587282 5.4056-12.526022-2.59264-19.681192l-5.71908-5.11624.19587-7.96032c.2331-9.47365-.68331-10.74963-8.96848-12.48746-4.998-1.04835-7.0809-.78124-26.89698 3.44925-34.30979 7.32472-44.47945 8.29311-44.47945 4.23549 0-1.52979.95947-2.19793 4.11108-2.86277l4.11107-.86725-1.86107-4.89795c-2.10343-5.53577-2.53364-17.99673-.77892-22.5614.59519-1.54831 1.15769-7.3151 1.25-12.8151.19232-11.4586-1.21842-15.38182-6.28591-17.48084-4.83767-2.00383-5.96706-.32158-7.70773 11.48084-.5453 3.69741-3.11114 13.29409-4.27787 16-4.00545 9.28954-9.72287 19.85215-12.990932 24-9.55949 12.13301-11.3897 17.52225-10.45695 30.79164 1.31246 18.671282-4.13595 31.704072-19.24819 46.042402-9.45067 8.96668-9.97263 9.26685-11.41791 6.56632-1.04279-1.94848-.32472-2.93921 7.80816-10.77309 7.26696-6.99979 9.69119-10.12645 12.85086-16.57443l3.89431-7.94715.50415-16.552852c.47607-15.63094.66088-16.8675 3.31835-22.2027 1.54782-3.10743 4.27505-7.38243 6.06052-9.5 4.79309-5.68465 10.058882-14.86168 13.398332-23.35014 2.85997-7.26969 3.84429-10.93987 6.28692-23.44149 1.22004-6.244317 5.11401-11.558508 8.46948-11.558508 3.09721 0 11.07825 5.079936 12.94444 8.239148 2.68472 4.54485 3.06522 15.40451 1.03784 29.62043-1.41265 9.90541-1.51277 13.00223-.55009 17.01512 1.36236 5.67894 4.14457 9.1253 7.36676 9.1253 2.16633 0 19.00426-3.44068 32.6633-6.67445 15.48115-3.66515 27.71873-2.44927 33.10637 3.28933 2.12933 2.26804 2.39363 3.46958 2.39363 10.88177 0 4.58272.225 8.50142.5 8.70823s2.18797 1.61858 4.25105 3.13726c8.13069 5.98521 9.0641 14.44556 2.74895 24.916222-4.54203 7.53078-4.72467 8.54207-2.1414 11.85678 3.14428 4.03456 5.1414 8.64044 5.1414 11.8574 0 1.68952-1.83983 6.73109-4.0885 11.20349l-4.08851 8.13163 1.70109 5.40822c4.76365 15.14487-5.63749 22.99509-38.02408 28.69852-11.55453 2.03481-31.90435 4.56731-36.78324 4.57761-4.79161.0101-12.24379 3.71777-21.32848 10.61145-3.91144 2.9681-7.34384 5.39654-7.62755 5.39654s-1.08699-.68819-1.78506-1.52932zm-105.95690156-12.94807c-.66432-.80045-1.0528-1.90732-.86331-2.45971.62276-1.81534 20.30507956-17.05068 22.03552956-17.05686 2.85116-.0102 3.13796 2.01317.66378 4.68296-2.15914 2.32984-16.8355796 14.10119-19.4914596 15.63326-.62518.36065-1.68022.0008-2.34453996-.79965z" fill="#00695c"/><path d="m31.768115 159.51893 2.40961 8.58575 5.900845 14.78791 6.092085 11.38257 8.219179 9.71576 12.323816 7.42835 9.548326 8.69038 10.088791 7.7822 2.469387 1.22354 21.352036-21.25534-7.23546-6.02746-6.727399-5.10076-5.269502-5.99274-11.534293-15.01848-13.44934-17.9366-3.694419-6.09604-3.450801-5.04291-4.326597-7.41826z" fill="#b2dfdb"/><ellipse cx="59.64341" cy="182.1277" fill="#1de9b6" rx="27.396643" ry="27.658812"/><path d="m57.927974 167.287.45879 13.82941 8.979285 9.83133" fill="none" stroke="#00695c" stroke-linecap="round" stroke-linejoin="round" stroke-width="5"/><path d="m54.630265 209.3347c-2.57761-.39903-3.5-1.04106-3.5-2.4362 0-1.66833.83532-1.90746 7-2.00396 10.93707-.1712 18.63722-5.09793 22.80386-14.59044 2.03554-4.6374 3.50162-6.24948 4.89839-5.38622 1.6546 1.0226.67642 6.05381-2.12737 10.94204-2.367 4.12671-5.6221 7.43341-9.46191 9.77949-5.60605 3.42523-12.45843 4.80285-19.61297 3.69529z" fill="#00695c"/></svg>