<svg xmlns="http://www.w3.org/2000/svg" viewBox="0 0 25.81 33.45"><title>bocal</title><g id="Calque_2" data-name="Calque 2"><g id="Calque_1-2" data-name="Calque 1"><path d="M25.79,20.42v6.87a5.88,5.88,0,0,1-5.62,6.15H6.07a5.81,5.81,0,0,1-6-5.62.81.81,0,0,0,0-.16q-.13-7.49,0-14.95A5.91,5.91,0,0,1,5.94,6.9q7-.18,13.91,0a6,6,0,0,1,5.95,6V13C25.83,15.48,25.79,18,25.79,20.42ZM13.52,29a2.3,2.3,0,0,0,1.25-.85l5.81-5.83c.54-.54.82-1.17.2-1.79s-1.15-.27-1.64.23l-6.29,6.31a1.1,1.1,0,0,0-.32,1.38A1,1,0,0,0,13.52,29ZM17,20c-.23-.71-.84-1.24-1.58-.58a42.06,42.06,0,0,0-4.3,4.35c-.57.65-.23,1.46.76,1.59C12.59,25.48,17,20.92,17,20Zm.64,10a1.5,1.5,0,0,0,.32-.09A24.85,24.85,0,0,0,22,25.78a1,1,0,0,0-1.51-1.25C19.25,25.76,18,27,16.78,28.29a.94.94,0,0,0-.14,1.11,1,1,0,0,0,1,.61Z" style="fill:#fcfdfe"/><path d="M12.82,4.21H6.66c-1.38,0-2.43-.53-2.45-2S5.27.07,6.58,0Q12.91,0,19.24,0a2.1,2.1,0,0,1,2.37,2.17c0,1.47-1.08,2-2.46,2Z" style="fill:#fcfdfe"/><path d="M13.52,29a1,1,0,0,1-1-.55,1.1,1.1,0,0,1,.32-1.38l6.29-6.31c.49-.49,1.07-.8,1.64-.23s.34,1.25-.2,1.79l-5.81,5.83A2.31,2.31,0,0,1,13.52,29Z" style="fill:none"/></g></g></svg>