<svg xmlns="http://www.w3.org/2000/svg" viewBox="0 0 653.79 380.99"><title>devinci</title><path d="M939.23,312c9.34,0,26.5-.06,43.66,0a49,49,0,0,1,9.41,1.1c6.31,1.28,8,4.17,5.08,9.91-6.71,13.39-13.41,26.8-20.68,39.88C926.89,452.55,875.33,541.14,821,628.07c-7.65,12.24-15.28,25-25.29,35.15-36.13,36.64-99.58,39.72-137.42,7.66-16.49-14-28.6-31.62-39.8-49.76-23.62-38.25-46.3-77.08-70.14-115.18-10-16-21.51-31.27-33.3-46.1C502.39,444,485,436.58,464.8,435.9c-11-.36-14.77,3.92-10.88,14.43a227.24,227.24,0,0,0,14.76,32.11c17.79,31.81,36.22,63.26,54.22,95,4.84,8.53,9.2,17.35,13.45,26.19,3.8,7.88.34,13.61-8.2,12.11a95.59,95.59,0,0,1-25.86-8.43c-27.49-13.81-49.55-33.53-65.67-60.24-30-49.75-59.26-99.93-86-151.53-1.76-3.39-3.32-6.9-4.74-10.44-1.9-4.7-1.06-6.95,3.91-8.18a83.16,83.16,0,0,1,16.72-2.55c33.64-1.2,67.25-1.25,100.88,1.42,44.75,3.55,79.51,23.85,106.14,59.58C595.8,465.2,614,497.52,633,529.42c17,28.45,34.25,56.72,52.27,84.5,12.52,19.3,33.79,23.89,54.44,13.38,8-4.07,15.06-9.37,19.94-17,19.7-30.67,40-61,58.63-92.29,23.42-39.49,45.4-79.84,67.86-119.89,2.75-4.91,4.63-10.31,7-15.44,1.51-3.3.23-5.5-3-5.75-5.09-.41-10.34-.77-15.33,0-22.59,3.55-42.57,11.93-56.09,31.7-5.83,8.52-12.41,16.55-17.8,25.33-17.93,29.22-35.34,58.76-53.25,88-6.77,11-14.13,21.78-21.66,32.34-4.62,6.49-6.85,6.38-11.79.11a141.08,141.08,0,0,1-21-37.29c-1.67-4.43-1.81-8.75.38-13,9.13-17.93,17.69-36.19,27.52-53.73C734,427.63,747.89,405.49,761.09,383s33-37.42,54.77-50.66c20.84-12.7,43.53-17.76,67.6-18.32C899.45,313.6,915.43,312.86,939.23,312Z" transform="translate(-344.95 -311.98)"/></svg>