<!DOCTYPE svg PUBLIC "-//W3C//DTD SVG 20010904//EN" "http://www.w3.org/TR/2001/REC-SVG-20010904/DTD/svg10.dtd">
<svg version="1.0" xmlns="http://www.w3.org/2000/svg" width="609px" height="452px" viewBox="0 0 6090 4520" preserveAspectRatio="xMidYMid meet">
<g id="layer101" fill="#ffffff" stroke="none">
 <path d="M4399 4061 c-5 -22 -3 -38 4 -48 5 -7 6 -17 2 -23 -3 -5 -1 -10 5 -10 7 0 10 -6 7 -14 -3 -7 0 -19 6 -25 6 -6 8 -11 5 -11 -3 0 0 -21 8 -47 24 -81 32 -77 -128 -70 -79 3 -195 11 -258 16 -63 6 -173 15 -245 21 -129 11 -209 20 -397 45 -54 7 -108 11 -120 8 -19 -4 -20 -3 -8 7 12 8 7 9 -20 5 -43 -7 -675 91 -892 138 -22 4 -18 -22 4 -28 126 -30 631 -112 937 -153 134 -18 134 -18 107 -35 -15 -10 -40 -19 -55 -20 -16 -1 -27 -5 -25 -8 8 -14 -410 -133 -556 -157 -36 -6 -105 -18 -155 -27 -49 -9 -112 -18 -140 -20 -258 -23 -344 -29 -567 -40 -48 -3 -89 -1 -92 4 -3 4 3 31 14 58 18 47 18 63 0 63 -10 0 -39 -69 -103 -250 -173 -486 -266 -921 -293 -1382 -6 -106 -9 -119 -30 -137 -13 -12 -24 -26 -24 -31 0 -17 -63 -39 -127 -45 -32 -3 -66 -8 -75 -11 -16 -5 -18 2 -18 48 0 34 -3 48 -9 39 -15 -23 -24 264 -18 544 4 209 11 294 32 435 29 194 120 573 145 605 4 6 17 37 29 70 12 33 26 70 33 82 12 25 4 57 -15 50 -6 -2 -12 -8 -13 -13 0 -5 -8 -26 -17 -46 -17 -41 -24 -43 -94 -29 -42 8 -70 1 -60 -16 3 -5 31 -15 62 -22 30 -7 55 -16 55 -20 0 -4 -13 -49 -29 -101 -166 -533 -199 -1023 -122 -1780 4 -47 13 -110 20 -140 6 -30 25 -124 42 -209 44 -221 130 -555 149 -575 5 -4 13 -6 18 -2 5 3 -3 46 -20 103 -64 218 -141 564 -140 631 0 17 -3 32 -7 32 -5 0 -8 11 -7 24 1 17 35 60 109 135 103 107 127 125 127 99 1 -95 27 -338 50 -468 31 -173 90 -379 114 -399 23 -19 28 4 10 46 -62 143 -132 518 -136 727 -1 87 1 99 21 120 12 13 25 36 30 52 4 16 17 33 29 39 12 5 22 13 22 18 0 4 4 5 10 2 5 -3 10 -2 10 4 0 15 58 43 72 35 6 -4 8 -3 5 3 -8 12 89 67 103 58 6 -4 9 -2 8 4 -3 11 468 281 490 281 8 0 25 9 39 20 33 26 39 25 55 -6 7 -15 31 -40 53 -56 73 -52 155 -50 228 6 l43 32 109 -4 c65 -2 121 1 138 7 35 14 59 65 46 99 -22 58 -56 193 -50 197 11 6 91 32 124 39 16 4 84 13 153 21 121 14 125 14 164 -6 23 -12 61 -24 86 -27 39 -4 50 -1 85 28 35 28 45 31 77 25 20 -4 46 -9 57 -11 11 -2 115 -33 230 -69 246 -77 250 -80 260 -182 11 -102 31 -195 46 -204 21 -13 47 8 60 48 6 21 15 43 20 49 5 6 6 14 2 17 -3 4 -1 7 5 7 7 0 11 3 11 8 -1 4 0 10 1 15 4 12 6 20 14 65 4 23 13 42 19 42 12 0 132 -76 214 -135 27 -19 42 -38 43 -52 0 -12 14 -38 30 -56 29 -34 30 -37 28 -128 -1 -84 -2 -88 -8 -39 -4 35 -7 -13 -8 -128 -2 -177 -24 -403 -56 -573 -12 -62 -7 -93 11 -75 12 11 60 284 67 371 16 226 28 426 28 488 0 37 4 67 7 67 3 0 12 -15 20 -32 8 -18 20 -41 28 -50 8 -9 12 -22 7 -29 -4 -8 -3 -10 4 -5 11 7 17 -6 13 -27 -1 -5 4 -5 10 -1 9 5 10 2 6 -9 -3 -9 -2 -19 4 -22 5 -4 32 -41 59 -83 50 -77 50 -77 45 -145 -8 -111 -44 -368 -59 -417 -8 -25 -17 -65 -21 -90 -4 -25 -18 -88 -31 -140 -25 -99 -29 -130 -16 -130 10 0 42 37 36 43 -3 2 0 17 6 32 6 15 17 62 24 104 8 42 17 87 21 101 11 45 14 63 35 200 60 403 66 465 97 1005 4 77 7 393 6 702 l-1 562 46 3 c62 4 56 22 -8 26 l-50 3 0 72 c0 113 -10 177 -28 177 -13 0 -14 -16 -8 -112 18 -315 27 -800 20 -1088 -4 -173 -11 -304 -15 -290 -4 14 -7 -37 -8 -115 -1 -172 -11 -305 -22 -305 -5 0 -28 17 -51 37 -24 21 -34 27 -23 13 l20 -25 -20 15 c-11 8 -26 23 -33 32 -7 9 -22 18 -34 20 -16 2 -24 12 -29 36 -4 19 -19 46 -33 61 -25 26 -26 31 -26 155 0 82 -4 125 -10 121 -6 -4 -10 12 -10 42 -1 88 -11 227 -21 273 -5 25 -18 108 -29 185 -24 172 -63 380 -101 542 -16 67 -29 132 -29 143 0 12 -5 31 -11 43 -7 12 -12 34 -11 49 0 15 -4 28 -10 28 -6 0 -8 10 -4 26 5 19 3 24 -5 18 -9 -5 -10 -1 -7 14 4 12 3 22 -2 22 -7 0 -24 55 -22 71 1 3 -6 6 -14 6 -7 0 -15 -3 -15 -6z m-689 -240 c47 -5 135 -13 195 -16 61 -3 139 -10 175 -15 36 -5 138 -12 228 -16 154 -7 163 -8 167 -28 3 -12 16 -68 29 -126 53 -232 104 -551 132 -820 3 -36 8 -74 10 -85 3 -11 8 -100 11 -198 5 -162 4 -177 -11 -171 -9 3 -16 9 -16 13 0 5 -21 29 -114 131 -13 14 -54 66 -91 115 -38 50 -73 93 -79 97 -6 4 -8 8 -3 8 4 0 -13 19 -37 42 -25 22 -42 46 -39 51 3 6 1 7 -4 4 -11 -7 -50 30 -45 42 1 3 -4 6 -10 6 -7 1 -12 7 -10 15 2 8 0 12 -4 8 -7 -7 -105 69 -131 102 -7 8 -13 11 -13 5 0 -5 -7 1 -16 13 -8 12 -23 22 -32 23 -14 0 -13 2 3 9 11 5 75 6 143 3 132 -5 154 1 145 40 -8 30 -64 89 -80 83 -7 -3 -13 -1 -13 5 0 6 -4 7 -10 4 -5 -3 -10 -1 -10 5 0 6 -4 8 -10 5 -5 -3 -10 -1 -10 5 0 6 -4 8 -10 5 -5 -3 -18 -1 -27 5 -17 11 -17 11 0 6 11 -3 15 -2 12 4 -3 6 -18 7 -32 4 -15 -4 -24 -3 -21 2 3 5 -10 10 -31 12 -20 1 -47 4 -61 5 -50 4 -28 -18 33 -34 76 -19 167 -58 167 -71 0 -5 5 -6 10 -3 6 3 10 1 10 -5 0 -6 3 -9 8 -7 4 3 16 -4 26 -14 15 -14 16 -19 5 -19 -8 -1 -76 -1 -152 0 l-138 1 -97 -87 c-53 -48 -132 -118 -174 -156 -42 -38 -94 -83 -115 -99 -21 -17 -41 -37 -46 -44 -11 -21 -68 -28 -102 -14 -17 7 -34 11 -40 10 -5 -2 -7 1 -3 5 4 4 -3 16 -16 28 -23 21 -86 109 -86 120 0 3 51 6 113 6 99 0 116 2 131 19 17 18 14 19 -101 27 -382 28 -763 -6 -1078 -97 -152 -44 -302 -96 -315 -109 -3 -3 -23 -13 -45 -24 -22 -10 -48 -22 -57 -27 -48 -25 -36 5 34 79 36 38 46 52 23 32 l-40 -35 39 42 c22 23 42 40 46 38 4 -2 18 8 31 23 l24 27 -27 -24 c-16 -14 -28 -20 -28 -14 0 13 136 127 215 181 118 80 308 163 460 202 167 43 503 69 653 50 114 -15 258 -54 368 -100 86 -35 104 -39 104 -19 0 9 -124 61 -225 93 -111 35 -231 56 -360 62 -60 3 -131 6 -157 8 -27 1 -48 -2 -48 -7 0 -5 -7 -6 -16 -3 -40 15 -327 -49 -494 -111 -200 -75 -363 -177 -504 -316 -50 -50 -95 -90 -99 -89 -5 2 -6 -2 -2 -8 3 -5 -1 -13 -9 -16 -9 -3 -13 -10 -10 -15 3 -5 0 -9 -5 -9 -6 0 -11 -5 -11 -12 0 -6 -9 -21 -20 -33 -11 -12 -46 -73 -78 -136 -95 -187 -165 -309 -173 -303 -5 3 -6 -3 -2 -12 5 -13 3 -15 -7 -9 -8 5 -11 4 -7 -3 10 -15 -3 -43 -16 -35 -5 3 -7 1 -4 -5 8 -11 -23 -72 -36 -72 -5 0 -5 -4 -2 -10 3 -5 1 -10 -5 -10 -6 0 -8 -4 -5 -10 3 -5 1 -10 -4 -10 -6 0 -11 -7 -11 -15 0 -23 -29 -75 -41 -75 -6 0 -8 37 -4 108 6 110 48 465 64 543 37 180 55 260 80 355 56 212 112 387 164 519 l23 60 210 2 c194 2 483 27 619 52 28 6 77 11 110 12 49 1 55 3 30 9 -21 5 -24 8 -9 9 39 2 339 80 465 120 70 23 137 41 150 41 12 0 19 3 16 6 -4 4 21 17 56 30 66 24 100 25 257 5z m-2333 -128 c-4 -3 -10 -3 -14 0 -3 4 0 7 7 7 7 0 10 -3 7 -7z m2618 -710 c22 -15 45 -32 52 -37 7 -6 33 -27 58 -46 53 -41 238 -237 248 -262 5 -15 1 -16 -26 -11 -33 6 -152 53 -197 78 -49 26 -136 59 -245 91 -60 17 -111 36 -112 41 -3 8 42 53 157 158 21 18 20 18 65 -12z m-775 -142 c0 -9 -57 -27 -72 -23 -5 1 -8 -3 -8 -9 0 -6 -9 -9 -20 -6 -11 3 -18 2 -15 -3 6 -10 -24 -22 -36 -14 -5 3 -9 0 -9 -6 0 -6 -4 -8 -10 -5 -5 3 -10 1 -10 -6 0 -7 -3 -9 -7 -6 -3 4 -11 3 -17 -2 -6 -5 -47 -28 -91 -52 -73 -40 -86 -43 -145 -42 -36 1 -81 8 -101 17 -20 8 -39 12 -43 9 -3 -4 -6 0 -6 7 0 7 -2 11 -5 8 -3 -3 -22 0 -42 7 -29 10 -41 10 -65 -2 -16 -8 -35 -12 -43 -9 -8 3 -15 2 -15 -3 0 -8 -9 -10 -54 -14 -13 -1 -22 -6 -18 -11 3 -5 -5 -7 -16 -4 -12 4 -22 2 -22 -4 0 -6 -7 -8 -15 -4 -8 3 -15 2 -15 -3 0 -9 -80 -32 -90 -26 -4 2 -4 -9 -2 -26 2 -16 9 -29 14 -29 5 0 6 -4 3 -10 -3 -6 1 -7 9 -4 9 4 18 -1 22 -10 3 -9 10 -13 15 -10 5 3 9 0 9 -6 0 -6 4 -9 8 -6 4 2 17 -3 29 -12 16 -13 20 -24 16 -45 l-5 -27 -37 22 c-20 12 -52 34 -72 49 -19 16 -49 30 -65 33 -29 5 -64 38 -64 60 0 31 31 48 140 76 63 16 125 30 138 30 13 0 20 4 17 10 -3 6 3 10 15 10 11 0 82 16 158 35 183 46 241 53 615 73 15 1 27 -2 27 -7z m53 -68 c6 -16 17 -32 24 -36 28 -17 14 -37 -26 -37 -22 0 -51 -4 -65 -10 -14 -5 -52 -10 -86 -12 -33 -2 -60 -6 -60 -10 0 -4 -10 -7 -22 -6 -13 0 -43 -6 -68 -15 -28 -10 -48 -13 -54 -7 -12 12 -15 9 60 53 79 45 151 77 175 77 11 0 19 4 19 9 0 10 26 17 68 20 16 1 26 -7 35 -26z m527 11 c14 -3 30 -6 35 -8 76 -21 106 -34 172 -80 43 -29 92 -60 108 -69 17 -8 40 -24 51 -36 12 -11 25 -17 28 -14 3 4 6 1 6 -5 0 -7 6 -12 14 -12 8 0 16 -3 18 -7 2 -5 20 -20 40 -36 30 -22 37 -33 35 -57 -1 -17 -6 -30 -11 -30 -4 0 -6 -6 -3 -14 3 -8 3 -17 -1 -20 -3 -4 -7 -12 -8 -19 -2 -7 -6 -25 -9 -41 -7 -36 -23 -66 -35 -66 -4 0 -11 30 -15 68 -9 98 -32 168 -65 196 -16 13 -71 36 -122 52 -195 60 -312 102 -288 104 17 1 6 6 -29 16 -30 8 -61 12 -68 10 -23 -9 -14 7 25 47 39 40 39 40 122 21z m-1197 -111 c18 -9 35 -18 40 -19 4 -1 8 -2 10 -3 1 -2 13 -4 27 -7 27 -5 63 -41 57 -58 -7 -20 -45 -18 -56 3 -12 21 -58 39 -123 48 -46 6 -112 -22 -152 -65 l-30 -31 -26 19 c-15 11 -30 17 -33 13 -4 -3 -9 2 -13 11 -3 9 -11 13 -16 10 -6 -4 -8 -1 -6 7 3 8 15 14 27 13 11 0 21 3 21 7 0 4 21 11 48 15 26 3 52 9 57 13 14 8 107 39 123 40 7 1 27 -7 45 -16z m1577 -25 c0 -5 4 -7 9 -3 5 3 12 1 15 -4 5 -8 63 -25 79 -22 4 0 7 -3 7 -9 0 -5 6 -9 13 -7 7 1 13 -10 15 -25 2 -17 -1 -28 -9 -28 -12 0 -99 47 -109 59 -3 3 -18 13 -34 21 -38 20 -45 39 -11 33 14 -3 25 -10 25 -15z m-2104 -30 c-2 -20 3 -38 13 -46 13 -11 13 -12 1 -7 -8 4 -6 -1 4 -9 11 -9 24 -16 29 -16 4 0 5 -5 1 -12 -4 -7 -3 -8 5 -4 6 4 24 -2 41 -14 16 -11 43 -26 60 -32 17 -5 29 -12 28 -14 -7 -6 -114 25 -207 60 -51 20 -102 36 -111 36 -10 0 -23 6 -30 14 -9 12 -5 16 24 22 20 3 33 10 30 15 -3 5 4 9 16 9 12 0 28 7 36 15 9 8 26 15 39 15 20 0 23 -4 21 -32z m823 -50 c13 -31 20 -62 15 -69 -4 -7 -3 -9 3 -6 6 4 17 -19 26 -53 21 -74 21 -76 -1 -98 -14 -14 -33 -17 -117 -14 -54 1 -101 4 -103 6 -1 2 0 15 4 30 6 24 10 26 64 26 41 0 61 5 71 16 17 21 23 58 7 48 -8 -5 -9 -2 -4 12 4 10 4 15 0 11 -6 -5 -94 132 -94 147 0 7 94 12 101 6 3 -3 16 -31 28 -62z m-270 11 c72 -56 89 -144 47 -235 -30 -65 -74 -94 -143 -94 -44 0 -54 4 -91 39 -45 43 -57 82 -50 161 5 51 43 120 66 120 6 0 12 4 12 10 0 5 7 6 17 3 10 -4 14 -2 10 5 -19 29 92 22 132 -9z m1759 -20 c18 -6 48 -33 72 -64 23 -30 57 -66 76 -80 47 -36 43 -51 -6 -20 -22 14 -43 25 -47 25 -5 0 -14 9 -21 20 -7 12 -17 18 -22 15 -5 -3 -12 0 -16 6 -5 8 -2 10 7 5 8 -4 3 1 -11 12 -14 12 -26 19 -29 17 -12 -13 -41 19 -41 45 0 17 2 30 4 30 1 0 17 -5 34 -11z m-2338 -74 c63 -20 143 -48 176 -61 34 -13 73 -25 85 -27 13 -2 23 -8 21 -13 -5 -15 -84 -64 -93 -58 -5 3 -9 1 -9 -4 0 -5 -114 -73 -252 -150 -139 -78 -278 -156 -308 -173 -40 -24 -51 -27 -40 -13 9 12 3 10 -15 -6 -72 -61 -128 -72 -84 -16 11 14 18 26 14 26 -3 0 6 15 20 34 15 19 26 37 26 40 -3 20 0 26 11 20 7 -4 8 -3 4 4 -4 6 2 19 13 29 11 9 18 20 15 25 -5 8 158 312 184 341 8 9 12 17 8 17 -3 0 1 11 9 24 18 28 -6 32 215 -39z m735 35 c3 -11 10 -20 15 -20 4 0 11 -7 14 -16 4 -10 2 -13 -7 -9 -6 4 -1 -3 12 -15 31 -27 17 -42 -35 -38 -36 3 -39 6 -44 38 -4 20 -10 41 -14 48 -11 18 2 32 29 32 15 0 26 -7 30 -20z m2049 -365 c108 -67 97 -51 95 -137 -2 -85 -17 -102 -39 -48 -7 17 -17 30 -22 30 -5 0 -7 4 -4 9 3 5 -1 12 -10 15 -10 4 -14 12 -10 23 4 10 4 14 0 10 -10 -10 -36 31 -28 45 4 6 3 8 -3 5 -5 -4 -16 6 -24 21 -7 15 -19 35 -27 44 -21 25 -5 43 20 21 10 -9 34 -26 52 -38z m-19 -125 c3 -5 4 -10 1 -10 -3 0 -8 5 -11 10 -3 6 -4 10 -1 10 3 0 8 -4 11 -10z m-3481 -269 c-32 -30 -52 -51 -44 -47 8 4 -10 -16 -40 -46 l-55 -53 -8 65 c-16 125 -21 115 53 118 46 3 59 6 45 12 -16 7 -11 9 20 10 22 1 49 5 60 9 41 16 27 -14 -31 -68z"/>
 <path d="M3973 3243 c4 -3 10 -3 14 0 3 4 0 7 -7 7 -7 0 -10 -3 -7 -7z"/>
 <path d="M2210 2610 c0 -7 3 -10 7 -7 3 4 3 10 0 14 -4 3 -7 0 -7 -7z"/>
 <path d="M2135 2580 c3 -5 8 -10 11 -10 3 0 2 5 -1 10 -3 6 -8 10 -11 10 -3 0 -2 -4 1 -10z"/>
 <path d="M3228 3923 c7 -3 16 -2 19 1 4 3 -2 6 -13 5 -11 0 -14 -3 -6 -6z"/>
 <path d="M4651 2134 c0 -11 3 -14 6 -6 3 7 2 16 -1 19 -3 4 -6 -2 -5 -13z"/>
 <path d="M1633 1933 c4 -3 10 -3 14 0 3 4 0 7 -7 7 -7 0 -10 -3 -7 -7z"/>
 <path d="M5733 1748 c-6 -7 -25 -42 -43 -78 -40 -81 -99 -170 -112 -170 -5 0 -6 -5 -3 -10 3 -6 -1 -13 -9 -16 -9 -3 -16 -13 -16 -20 0 -8 -7 -17 -15 -20 -8 -4 -15 -12 -15 -18 0 -17 -48 -61 -57 -53 -3 4 6 29 21 57 15 27 27 52 26 55 -2 23 2 36 15 49 9 8 15 17 14 18 -1 2 7 29 16 60 18 56 17 76 -3 64 -5 -3 -20 -33 -32 -66 -12 -33 -26 -60 -31 -60 -5 0 -5 -7 -2 -17 4 -11 3 -14 -5 -9 -8 5 -10 2 -6 -8 3 -9 1 -16 -5 -16 -6 0 -8 -7 -5 -15 4 -8 1 -15 -5 -15 -6 0 -10 -3 -9 -7 5 -25 -89 -206 -117 -226 -28 -20 -45 -16 -27 6 7 8 9 17 5 20 -3 4 -1 7 6 7 7 0 9 5 6 10 -3 6 -2 10 2 10 5 0 9 8 10 18 1 9 15 55 31 102 38 106 50 164 32 158 -7 -2 -26 -44 -42 -93 -16 -50 -33 -91 -38 -93 -5 -2 -6 -10 -3 -19 4 -10 2 -14 -4 -10 -7 5 -9 -1 -5 -15 3 -14 1 -19 -6 -14 -8 5 -10 2 -6 -8 3 -9 1 -16 -5 -16 -6 0 -11 -8 -11 -18 0 -9 -17 -46 -38 -82 -35 -62 -88 -110 -120 -110 -12 0 -12 3 2 23 9 12 24 39 33 60 10 20 21 37 26 37 4 0 5 5 1 12 -4 6 1 17 10 24 10 7 17 15 17 18 -3 26 1 36 11 30 6 -4 8 -3 5 3 -4 6 7 48 24 93 28 77 32 119 10 106 -5 -4 -17 -30 -26 -59 -25 -75 -56 -147 -65 -147 -3 0 -7 -6 -7 -14 0 -22 -25 -76 -35 -76 -5 0 -7 -4 -4 -9 4 -5 3 -11 -1 -13 -5 -1 -21 -29 -38 -61 -30 -58 -80 -116 -91 -105 -3 4 2 20 11 37 8 17 13 31 9 31 -3 0 4 17 16 37 12 21 24 49 27 63 2 14 8 27 14 28 5 2 7 8 3 13 -3 5 -1 9 5 9 6 0 8 7 5 15 -4 8 -1 15 7 15 7 0 9 3 6 7 -4 3 -2 12 4 20 6 7 9 13 6 13 -3 0 1 22 8 49 7 28 10 52 7 55 -13 14 -22 3 -37 -49 -8 -30 -20 -55 -25 -55 -5 0 -7 -7 -4 -15 4 -8 1 -15 -5 -15 -6 0 -8 -7 -4 -17 4 -10 2 -14 -4 -10 -7 5 -9 -1 -5 -15 3 -14 1 -19 -6 -14 -8 5 -10 2 -6 -8 3 -9 1 -16 -5 -16 -6 0 -10 -3 -9 -7 1 -8 -7 -32 -25 -73 -6 -14 -11 -28 -11 -31 -4 -28 -53 -109 -72 -118 -13 -6 -24 -7 -24 -3 0 19 31 104 45 126 10 14 14 26 10 26 -4 0 -2 6 4 13 6 8 8 17 4 20 -3 4 -1 7 5 7 6 0 9 7 5 17 -4 10 -2 14 4 10 6 -4 8 3 5 20 -3 18 -1 24 6 19 8 -5 10 -2 6 8 -3 9 -1 16 5 16 6 0 8 6 5 14 -3 8 -1 17 5 20 6 4 8 13 4 21 -3 8 0 15 7 15 10 0 10 3 0 15 -9 11 -16 12 -25 5 -6 -5 -16 -6 -20 -2 -5 4 -5 2 -1 -5 8 -14 -15 -104 -25 -97 -4 2 -5 -6 -1 -18 4 -16 2 -19 -8 -13 -9 5 -11 4 -6 -4 8 -13 -23 -111 -36 -111 -4 0 -4 -7 -1 -17 4 -11 3 -14 -5 -9 -8 5 -10 2 -6 -8 3 -9 2 -16 -3 -16 -5 0 -15 -23 -22 -51 -8 -30 -20 -53 -30 -55 -32 -10 -46 -21 -49 -39 -3 -15 1 -17 25 -11 39 9 325 152 350 176 12 10 24 16 27 13 3 -4 6 -1 6 6 0 7 4 10 9 7 5 -4 11 -3 13 1 1 5 39 35 83 67 84 62 328 303 320 317 -3 4 7 17 22 29 16 12 22 19 15 15 -7 -4 2 17 21 47 57 88 109 200 99 210 -5 5 -13 4 -19 -4z"/>
 <path d="M2596 1585 c-44 -84 -136 -229 -152 -238 -8 -5 -12 -12 -10 -16 3 -4 -8 -21 -25 -37 -33 -32 -33 -26 4 56 23 51 23 51 33 104 9 51 -13 45 -34 -9 -9 -22 -19 -41 -23 -43 -4 -2 -5 -10 -2 -19 4 -11 2 -14 -5 -9 -8 5 -12 -2 -12 -23 0 -16 -3 -31 -7 -33 -5 -1 -26 -41 -48 -88 -41 -86 -90 -154 -105 -145 -5 3 2 24 15 47 13 23 22 45 19 50 -3 4 -1 8 5 8 6 0 7 7 4 17 -4 10 -2 14 4 10 7 -5 9 1 5 15 -3 11 -1 19 4 16 5 -4 9 4 10 15 1 12 5 42 9 66 12 65 -15 50 -35 -20 -11 -36 -19 -49 -23 -39 -4 8 -5 2 -2 -13 4 -17 2 -26 -4 -23 -5 4 -7 -3 -3 -16 4 -15 2 -19 -7 -13 -10 5 -11 2 -6 -14 4 -14 2 -21 -6 -21 -7 0 -10 -3 -6 -6 9 -10 -82 -178 -104 -192 -30 -19 -35 -7 -14 36 10 20 18 40 17 45 -1 4 2 7 6 7 5 0 9 6 9 13 1 6 11 48 22 91 15 56 18 83 11 90 -13 13 -30 -9 -30 -41 0 -12 -15 -64 -34 -115 -46 -127 -93 -208 -122 -208 -8 0 -2 25 18 78 32 81 58 167 58 189 0 23 -30 14 -31 -9 0 -22 -1 -22 -9 -3 -6 15 -9 6 -9 -32 -1 -29 -5 -53 -9 -53 -7 0 -35 -85 -37 -111 -1 -17 -57 -108 -70 -113 -20 -7 -19 3 6 66 11 29 21 55 21 58 0 3 5 16 10 30 16 41 15 93 -2 97 -13 4 -13 3 0 -6 13 -10 13 -11 0 -12 -8 -1 -19 -1 -23 0 -5 1 -8 -9 -7 -21 4 -48 0 -79 -10 -73 -6 4 -9 3 -8 -2 3 -12 -22 -82 -48 -135 -28 -55 -30 -68 -9 -68 34 0 262 129 305 172 9 8 21 17 27 19 41 14 354 341 359 374 1 7 20 39 41 72 49 71 123 205 123 221 0 29 -28 7 -54 -43z m-116 -259 c0 -3 -5 -8 -12 -12 -7 -4 -8 -3 -4 4 7 12 16 16 16 8z"/>
 <path d="M543 1472 c8 -93 178 -339 319 -461 90 -79 121 -100 218 -147 30 -15 67 -33 82 -40 36 -19 82 -19 75 0 -3 8 -9 31 -13 50 -3 20 -9 36 -13 36 -6 0 -17 33 -34 106 -2 7 -8 18 -15 26 -6 8 -9 18 -5 22 4 4 0 4 -10 0 -18 -6 -21 -64 -4 -64 5 0 7 -7 3 -15 -3 -8 0 -15 6 -15 6 0 8 -3 5 -7 -4 -3 -3 -11 2 -17 11 -13 26 -86 18 -86 -3 0 -17 4 -32 10 -25 10 -40 35 -50 88 -28 141 -42 197 -48 195 -17 -6 -21 -2 -7 7 13 8 13 10 -2 10 -9 0 -19 -4 -23 -9 -6 -10 6 -69 30 -151 7 -25 16 -57 19 -72 l6 -27 -44 25 c-43 24 -45 27 -52 82 -7 63 -39 201 -48 210 -16 15 -24 -17 -14 -58 15 -68 25 -161 18 -165 -4 -2 -22 11 -40 30 -33 34 -49 83 -50 158 0 21 -4 36 -9 33 -5 -3 -12 16 -16 44 -5 33 -12 50 -21 50 -8 0 -14 -3 -14 -7 0 -7 13 -96 25 -168 l4 -30 -39 44 c-41 44 -52 72 -71 176 -16 85 -16 85 -39 85 -21 0 -28 -28 -11 -45 5 -6 12 -20 16 -32 11 -38 -14 -26 -33 15 -9 20 -20 39 -25 40 -4 2 -5 8 -1 13 3 5 0 9 -6 9 -6 0 -8 5 -5 10 3 6 2 10 -3 10 -5 0 -13 14 -18 32 -14 49 -36 49 -31 0z"/>
 <path d="M3680 1439 c0 -34 174 -213 280 -287 132 -92 327 -167 524 -201 128 -23 201 -27 211 -12 5 9 -33 101 -47 111 -3 3 -10 20 -15 39 -5 19 -14 36 -21 39 -21 7 -13 -61 13 -107 14 -23 25 -45 25 -47 0 -2 -11 -4 -25 -4 -26 0 -45 27 -60 85 -8 29 -11 40 -18 68 -11 39 -28 67 -38 62 -12 -8 -9 -64 4 -82 5 -7 6 -13 2 -13 -4 0 -1 -10 8 -23 8 -12 18 -37 21 -55 7 -28 5 -32 -14 -32 -58 0 -83 40 -113 188 -7 33 -16 52 -25 52 -12 0 -13 -12 -8 -62 4 -34 14 -81 22 -106 9 -24 13 -46 11 -48 -2 -3 -16 0 -31 6 -18 6 -34 26 -49 57 -11 27 -20 51 -19 56 1 4 -3 7 -8 7 -6 0 -8 11 -4 26 5 19 4 25 -5 20 -7 -5 -11 1 -11 16 0 38 -12 69 -24 65 -23 -8 -6 -106 30 -175 22 -42 18 -55 -13 -47 -16 3 -34 12 -41 19 -14 14 -51 132 -60 196 -5 31 -12 46 -24 48 -14 3 -18 -3 -18 -23 0 -38 29 -146 46 -172 23 -36 -6 -37 -51 -3 -22 17 -65 101 -65 128 0 10 -5 23 -11 29 -5 5 -11 26 -12 46 -1 19 -6 32 -11 29 -5 -3 -6 3 -2 13 5 14 4 16 -8 6 -17 -14 -27 -59 -14 -67 5 -3 7 -12 4 -20 -3 -8 -1 -14 4 -14 6 0 9 -3 7 -8 -1 -4 7 -26 17 -50 39 -86 -15 -60 -79 38 -25 39 -45 75 -45 80 0 6 -5 10 -11 10 -5 0 -7 5 -4 10 3 6 1 10 -4 10 -6 0 -10 3 -9 8 4 14 -23 52 -37 52 -19 0 -19 -20 1 -48 8 -12 12 -22 9 -22 -3 0 6 -17 20 -37 14 -21 25 -41 25 -45 0 -13 -34 5 -60 31 -15 14 -17 19 -5 10 18 -13 19 -13 6 3 -7 10 -17 16 -21 13 -7 -5 -72 68 -104 118 -18 27 -46 37 -46 16z"/>
 <path d="M3204 1296 c-3 -8 12 -41 33 -73 36 -55 148 -184 167 -192 4 -2 32 -23 61 -47 62 -50 223 -144 247 -144 9 0 19 -4 23 -10 8 -14 216 -79 320 -100 133 -27 160 -31 275 -39 l105 -7 -40 -17 c-21 -10 -46 -19 -55 -20 -8 -2 -19 -5 -25 -9 -19 -11 -127 -30 -146 -25 -10 3 -19 0 -19 -5 0 -7 -56 -8 -172 -4 -220 9 -228 9 -228 19 0 14 -31 7 -37 -8 -3 -9 -4 -18 -1 -20 2 -2 51 -12 109 -20 81 -13 138 -15 259 -9 85 4 148 9 140 12 -18 6 90 30 142 31 20 1 38 5 40 9 5 14 118 62 144 62 39 0 38 19 -3 68 -39 46 -77 108 -78 126 0 5 -7 11 -15 13 -13 4 -13 3 0 -6 13 -9 12 -11 -3 -11 -14 0 -17 -5 -11 -22 15 -50 23 -64 48 -87 34 -32 33 -41 -3 -41 -23 0 -40 12 -77 54 -46 53 -86 124 -78 137 2 4 -3 10 -12 13 -8 3 -13 10 -10 14 3 5 -1 9 -8 9 -8 0 -12 -13 -12 -34 1 -18 4 -33 9 -33 4 0 5 -4 2 -10 -3 -5 -1 -10 5 -10 6 0 8 -5 5 -11 -4 -6 11 -32 34 -59 50 -59 52 -71 9 -64 -46 9 -74 28 -108 77 -16 23 -34 47 -39 53 -5 7 -7 15 -4 18 4 3 0 6 -7 6 -7 0 -10 3 -7 7 4 3 2 12 -4 20 -6 7 -8 13 -4 13 4 0 2 7 -5 15 -7 8 -9 15 -4 15 10 0 -17 20 -27 20 -4 0 -9 -11 -11 -25 -3 -14 -1 -25 4 -25 6 0 7 -7 4 -16 -4 -10 -2 -13 6 -8 8 5 9 2 5 -10 -4 -10 -3 -15 3 -11 6 3 10 -3 10 -14 0 -12 5 -21 11 -21 5 0 7 -5 4 -11 -4 -5 11 -28 33 -49 23 -21 38 -40 36 -43 -24 -23 -150 74 -175 135 -6 15 -16 28 -21 28 -5 0 -6 5 -3 10 3 6 1 10 -5 10 -6 0 -8 5 -5 10 3 6 1 10 -5 10 -6 0 -8 5 -5 10 3 6 1 10 -5 10 -6 0 -8 5 -5 10 3 6 1 10 -4 10 -6 0 -11 7 -11 15 0 8 -7 15 -15 15 -20 0 -19 -16 5 -69 11 -24 20 -49 20 -56 0 -7 21 -36 46 -64 26 -29 44 -54 42 -56 -3 -3 -19 -2 -36 1 -22 4 -50 27 -89 70 -78 84 -83 91 -76 98 4 3 1 6 -6 6 -7 0 -9 5 -6 10 3 6 2 10 -3 10 -13 0 -33 50 -26 62 4 7 2 8 -4 4 -7 -4 -12 -1 -12 8 0 23 -27 20 -33 -4 -3 -13 -1 -18 6 -13 6 4 8 -2 4 -16 -3 -14 0 -24 9 -28 8 -3 11 -9 8 -14 -3 -5 0 -9 7 -9 7 0 10 -3 6 -6 -10 -11 19 -56 62 -99 23 -21 41 -43 41 -48 0 -12 -39 2 -72 25 -16 11 -28 17 -28 13 0 -3 -15 11 -32 32 -18 20 -50 55 -72 78 -47 50 -97 125 -90 136 3 5 1 9 -4 9 -5 0 -14 11 -20 25 -15 32 -28 32 -35 -1 -3 -16 0 -28 9 -31 8 -3 11 -9 8 -14 -3 -5 0 -9 7 -9 7 0 10 -3 6 -6 -11 -12 21 -60 83 -125 61 -64 64 -81 10 -59 -33 13 -178 161 -207 210 -9 16 -21 30 -25 30 -4 0 -8 5 -8 10 0 6 -5 16 -11 23 -5 7 -19 27 -29 45 -22 37 -35 41 -43 13 -3 -12 1 -22 10 -25 9 -4 13 -13 9 -22 -3 -8 -2 -13 3 -10 9 6 21 -14 27 -42 1 -7 23 -36 49 -63 26 -28 44 -53 41 -56 -7 -8 -75 43 -104 79 -13 15 -28 28 -35 28 -16 0 -91 85 -138 158 -23 34 -43 62 -45 62 -3 0 -7 -7 -10 -14z"/>
 <path d="M2730 1041 c-105 -90 -313 -222 -347 -221 -5 0 29 35 73 78 70 65 81 81 75 100 -6 24 -6 24 -41 -10 -19 -19 -35 -36 -35 -39 0 -13 -240 -220 -261 -225 -50 -13 -41 5 53 100 54 54 91 95 83 91 -12 -6 -13 -5 -2 6 17 18 15 26 -8 32 -11 3 -17 1 -14 -4 3 -5 -2 -12 -10 -15 -9 -3 -16 -11 -16 -18 0 -6 -51 -62 -114 -123 -106 -105 -196 -167 -214 -149 -4 4 31 44 78 88 47 44 78 77 70 72 -12 -6 -13 -5 -4 7 6 8 14 22 17 32 5 14 3 16 -12 8 -10 -6 -22 -7 -26 -3 -5 4 -5 2 -2 -5 12 -20 -193 -212 -241 -225 -40 -11 -39 -1 3 42 34 34 54 80 35 80 -3 0 -37 -31 -76 -69 -57 -56 -77 -69 -110 -73 -21 -3 -42 -2 -46 1 -4 4 6 23 23 44 17 20 28 37 24 37 -3 0 -1 9 5 20 6 11 15 18 20 15 6 -4 7 1 3 11 -4 12 -3 15 6 10 6 -4 10 -4 9 1 -2 4 3 23 11 41 9 22 11 36 4 43 -7 7 -19 -5 -38 -38 -16 -26 -33 -51 -39 -55 -6 -4 -7 -8 -2 -8 6 0 0 -9 -12 -20 -12 -12 -22 -26 -22 -33 0 -26 -64 -74 -108 -81 -42 -6 -43 -6 -31 16 6 13 21 34 33 47 11 13 15 21 8 17 -8 -5 -3 9 10 30 32 52 48 91 48 114 0 36 -15 21 -49 -50 -19 -38 -39 -67 -44 -63 -6 3 -7 1 -3 -5 3 -6 -12 -37 -34 -68 -26 -38 -37 -61 -30 -68 5 -5 39 -8 75 -7 47 2 86 -4 133 -20 72 -24 91 -30 107 -35 6 -2 69 -15 140 -29 72 -14 148 -29 169 -34 50 -12 381 -13 346 -1 -24 8 -24 8 -3 9 12 1 27 9 32 20 10 18 8 18 -32 9 -70 -16 -407 -2 -511 22 -50 11 -92 24 -95 29 -3 5 -17 9 -31 9 -31 0 -80 19 -80 30 0 4 44 14 98 20 105 13 238 46 362 88 85 30 273 115 278 126 2 5 8 6 13 2 5 -3 9 0 9 6 0 6 4 9 9 6 5 -3 12 1 15 10 4 10 12 14 23 10 10 -4 14 -4 11 0 -4 3 39 37 95 75 106 70 207 154 207 170 0 18 -26 7 -70 -30z m-200 -65 c0 -3 -5 -8 -12 -12 -7 -4 -8 -3 -4 4 7 12 16 16 16 8z"/>
 <path d="M2513 1033 c4 -3 10 -3 14 0 3 4 0 7 -7 7 -7 0 -10 -3 -7 -7z"/>
 <path d="M5613 973 c4 -3 10 -3 14 0 3 4 0 7 -7 7 -7 0 -10 -3 -7 -7z"/>
 <path d="M5485 950 c6 -10 4 -12 -8 -7 -11 4 -21 -1 -28 -16 -22 -41 -133 -147 -176 -168 -77 -37 -83 -21 -18 50 33 35 61 74 62 87 4 24 -10 33 -22 14 -4 -6 -11 -8 -16 -4 -5 3 -8 1 -7 -5 5 -17 -143 -181 -163 -181 -11 0 -19 -4 -19 -10 0 -5 -13 -10 -30 -10 -16 0 -30 4 -30 8 0 4 25 32 54 61 30 30 54 57 54 60 -1 3 5 18 12 34 20 42 2 46 -33 7 -17 -19 -35 -34 -40 -32 -5 1 -6 -2 -2 -8 3 -5 -1 -13 -9 -16 -9 -3 -16 -11 -16 -18 -1 -6 -21 -33 -45 -59 -42 -46 -46 -48 -92 -45 l-48 3 84 87 c62 64 82 91 77 104 -6 14 -27 -3 -114 -89 -83 -83 -113 -107 -134 -107 -43 0 -42 17 1 60 22 22 42 40 45 40 15 0 56 54 51 67 -5 14 -8 14 -23 -1 -10 -9 -22 -16 -27 -16 -13 0 -155 -144 -155 -157 0 -6 13 -14 29 -18 16 -3 39 -17 51 -31 13 -13 28 -24 33 -24 5 0 28 -16 50 -36 59 -50 183 -110 269 -129 79 -17 235 -17 231 0 -2 6 -51 13 -110 16 -146 9 -290 62 -349 129 -14 16 -31 27 -38 24 -6 -2 -16 4 -23 14 -11 18 -5 19 110 25 79 4 158 15 222 32 55 14 111 25 125 26 23 0 23 1 5 9 -19 8 -19 9 3 9 25 1 205 88 210 102 2 5 10 9 18 9 8 0 14 5 14 12 0 6 3 9 6 6 3 -4 14 2 25 13 11 11 25 17 31 13 6 -4 8 -3 5 3 -7 10 20 28 36 25 4 -1 6 4 5 10 -2 7 4 12 12 10 12 -3 12 0 -2 14 -16 16 -20 15 -69 -22 -29 -21 -50 -32 -45 -24 4 8 -3 3 -16 -11 -28 -32 -68 -55 -68 -39 0 6 12 22 27 36 28 26 37 60 20 71 -6 4 -7 1 -2 -7z m-175 -74 c0 -3 -5 -8 -12 -12 -7 -4 -8 -3 -4 4 7 12 16 16 16 8z m-180 -50 c0 -2 -8 -10 -17 -17 -16 -13 -17 -12 -4 4 13 16 21 21 21 13z"/>
 <path d="M330 924 c0 -42 154 -206 250 -267 102 -64 249 -116 379 -135 25 -4 99 -7 164 -7 64 1 117 -3 117 -7 0 -4 -6 -8 -14 -8 -7 0 -19 -7 -26 -15 -7 -8 -16 -13 -20 -10 -5 3 -11 1 -14 -4 -11 -18 -145 -41 -234 -41 -49 0 -130 7 -181 16 -67 11 -96 13 -104 5 -6 -6 -8 -13 -5 -16 18 -18 224 -45 338 -44 85 1 112 4 85 9 -28 5 -32 8 -14 9 14 0 50 9 80 18 30 9 65 15 78 14 13 -2 21 2 17 7 -3 5 12 17 33 26 20 10 50 28 66 40 24 19 26 25 16 43 -6 12 -17 27 -24 35 -14 14 -47 81 -47 95 0 4 -8 13 -18 19 -15 10 -18 8 -20 -9 0 -12 7 -30 16 -41 13 -15 13 -18 2 -12 -9 5 -8 2 2 -7 10 -8 15 -17 11 -20 -3 -4 -2 -7 4 -7 12 0 35 -48 28 -60 -3 -5 -18 -7 -33 -6 -22 3 -32 13 -55 61 -15 31 -35 64 -43 72 -8 9 -13 22 -10 30 3 8 1 11 -4 8 -6 -3 -11 1 -11 9 -1 9 -2 21 -3 28 0 6 -8 13 -16 15 -13 4 -13 3 0 -6 8 -6 10 -11 4 -11 -20 0 -22 -47 -3 -71 10 -13 19 -29 19 -35 0 -5 11 -25 25 -44 33 -44 32 -50 -8 -50 -26 0 -37 6 -47 25 -7 14 -16 25 -20 25 -4 0 -13 18 -20 40 -7 22 -17 40 -23 40 -5 0 -6 7 -3 16 4 10 2 13 -6 8 -7 -5 -9 0 -6 14 4 12 2 22 -4 22 -6 0 -8 6 -5 13 3 7 -3 13 -13 14 -17 2 -35 -33 -21 -39 3 -2 15 -28 25 -58 11 -30 28 -66 38 -79 24 -32 23 -41 -6 -41 -25 0 -69 44 -81 80 -3 11 -11 20 -16 20 -6 0 -7 5 -4 10 3 6 1 10 -5 10 -6 0 -8 5 -5 10 3 6 1 10 -5 10 -6 0 -8 5 -5 10 3 6 1 10 -5 10 -6 0 -8 5 -5 10 3 6 2 10 -2 10 -5 0 -13 10 -18 22 -13 29 -31 33 -38 8 -3 -11 -1 -20 5 -20 6 0 7 -7 4 -16 -4 -10 -2 -13 6 -8 8 5 9 2 5 -10 -5 -11 -3 -15 5 -10 8 5 9 2 5 -10 -4 -10 -3 -15 3 -11 9 6 14 -8 11 -27 0 -5 4 -8 10 -8 5 0 8 -4 5 -9 -3 -5 1 -12 10 -15 8 -3 13 -10 9 -15 -3 -6 3 -14 12 -20 15 -9 11 -10 -19 -11 -40 0 -59 14 -80 60 -7 16 -16 30 -19 30 -4 0 -21 36 -40 80 -18 44 -36 80 -40 80 -17 0 -19 -21 -4 -56 8 -20 12 -41 8 -47 -4 -6 -1 -7 7 -2 8 5 11 3 8 -6 -3 -8 8 -31 24 -53 44 -61 36 -81 -22 -51 -17 9 -34 29 -41 50 -7 19 -17 35 -21 35 -4 0 -8 4 -8 9 0 5 -5 22 -12 38 -6 15 -11 31 -10 36 1 4 -3 7 -9 7 -6 0 -9 9 -6 20 3 12 1 18 -5 14 -5 -4 -8 3 -6 16 2 16 -3 24 -15 26 -11 1 -16 0 -14 -3 3 -3 2 -16 -4 -30 -6 -18 -6 -22 3 -17 8 5 9 2 5 -9 -3 -9 -2 -19 4 -22 5 -4 7 -11 4 -16 -4 -5 -1 -9 5 -9 6 0 8 -4 5 -10 -3 -5 -1 -10 4 -10 6 0 10 -3 9 -7 -1 -5 4 -21 10 -36 14 -34 15 -37 2 -37 -15 0 -80 61 -80 75 0 18 -33 75 -43 75 -5 0 -5 5 -2 10 3 6 1 10 -5 10 -6 0 -8 5 -5 10 3 6 1 10 -5 10 -6 0 -9 4 -6 8 7 12 -41 68 -50 59 -11 -11 13 -74 48 -124 16 -24 24 -43 18 -43 -21 0 -108 81 -151 141 -45 61 -59 71 -59 43z"/>
 </g>

</svg>