<svg xmlns="http://www.w3.org/2000/svg" viewBox="0 0 1000 1000"><defs><style>.cls-1{fill:#fff;}</style></defs><title>Ideogram_Monochrome-white</title><g id="Layer_2" data-name="Layer 2"><g id="Calque_1" data-name="Calque 1"><path class="cls-1" d="M500,0C223.86,0,0,223.86,0,500s223.86,500,500,500,500-223.86,500-500S776.14,0,500,0ZM745.46,735.17H696a18.66,18.66,0,0,1-17.22-11.49L500.51,295l-178,428.49A18.63,18.63,0,0,1,305.26,735H254.54a10.52,10.52,0,0,1-9.64-14.73l215.24-492a26.46,26.46,0,0,1,24.25-15.85h32a26.48,26.48,0,0,1,24.27,15.89L755.11,720.45A10.52,10.52,0,0,1,745.46,735.17Z"/></g></g></svg>