<svg id="Calque_1" data-name="Calque 1" xmlns="http://www.w3.org/2000/svg" viewBox="0 0 31.99 46.44"><title>tip_jar</title><path d="M128.35,261.64c0-7.39,0-14.78,0-22.17,0-.86.2-1.06,1.06-1.06q14.94.06,29.88,0c.86,0,1.06.19,1.06,1.06q0,22.16,0,44.33c0,.86-.19,1.06-1,1.06q-15-.06-29.89,0c-.86,0-1.06-.19-1.06-1.06C128.36,276.41,128.35,269,128.35,261.64Zm28.51,1.56c0-2.47,0-4.93,0-7.39a6,6,0,0,0-5.94-6.13q-6.94-.17-13.91,0a5.92,5.92,0,0,0-5.87,5.82q-.15,7.47,0,14.95a5.81,5.81,0,0,0,6,5.78q6.78,0,13.57,0a5.9,5.9,0,0,0,6.15-6.16C156.89,267.78,156.86,265.49,156.86,263.2Zm-13-16.2h6.33c1.38,0,2.43-.53,2.46-2s-1.06-2.15-2.37-2.17q-6.33-.09-12.66,0c-1.31,0-2.4.7-2.37,2.17s1.07,2,2.45,2Z" transform="translate(-128.32 -238.41)" style="fill:none"/><path d="M156.86,263.2c0,2.29,0,4.58,0,6.87a5.9,5.9,0,0,1-6.15,6.16q-6.8,0-13.57,0a5.81,5.81,0,0,1-6-5.78q-.15-7.47,0-14.95a5.92,5.92,0,0,1,5.87-5.82q7-.17,13.91,0a6,6,0,0,1,5.94,6.13C156.9,258.27,156.86,260.73,156.86,263.2Zm-12.27,8.56a2.28,2.28,0,0,0,1.25-.85l5.81-5.82c.54-.55.82-1.18.2-1.8s-1.15-.26-1.64.23q-3.15,3.15-6.29,6.31a1.09,1.09,0,0,0-.32,1.38A1,1,0,0,0,144.59,271.76Zm3.46-9c-.23-.71-.84-1.23-1.58-.58a43.06,43.06,0,0,0-4.3,4.35c-.57.65-.23,1.46.76,1.59C143.66,268.26,148.09,263.71,148.05,262.79Zm.64,10a1,1,0,0,0,.32-.09,24.85,24.85,0,0,0,4.09-4.11,1,1,0,0,0-1.51-1.25c-1.27,1.23-2.51,2.49-3.74,3.76a.92.92,0,0,0-.14,1.11A1,1,0,0,0,148.69,272.8Z" transform="translate(-128.32 -238.41)" style="fill:#fcfdfe"/><path d="M143.89,247h-6.16c-1.38,0-2.43-.54-2.45-2s1.06-2.15,2.37-2.17q6.33-.09,12.66,0c1.31,0,2.4.7,2.37,2.17s-1.08,2-2.46,2Z" transform="translate(-128.32 -238.41)" style="fill:#fcfdfe"/><path d="M144.59,271.76a1,1,0,0,1-1-.55,1.09,1.09,0,0,1,.32-1.38q3.14-3.16,6.29-6.31c.49-.49,1.07-.8,1.64-.23s.34,1.25-.2,1.8l-5.81,5.82A2.28,2.28,0,0,1,144.59,271.76Z" transform="translate(-128.32 -238.41)" style="fill:none"/><path d="M148.05,262.79c0,.92-4.39,5.47-5.12,5.36-1-.13-1.33-.94-.76-1.59a43.06,43.06,0,0,1,4.3-4.35C147.21,261.56,147.82,262.08,148.05,262.79Z" transform="translate(-128.32 -238.41)" style="fill:none"/><path d="M148.69,272.8a1,1,0,0,1-1-.58.92.92,0,0,1,.14-1.11c1.23-1.27,2.47-2.53,3.74-3.76a1,1,0,0,1,1.51,1.25,24.85,24.85,0,0,1-4.09,4.11A1,1,0,0,1,148.69,272.8Z" transform="translate(-128.32 -238.41)" style="fill:none"/></svg>